<svg width="16" height="11" viewBox="0 0 16 11" fill="none" xmlns="http://www.w3.org/2000/svg">
<path fill-rule="evenodd" clip-rule="evenodd" d="M0.5 0.833333C0.5 0.373333 0.873333 0 1.33333 0C1.79333 0 2.16667 0.373333 2.16667 0.833333C2.16667 1.29333 1.79333 1.66667 1.33333 1.66667C0.873333 1.66667 0.5 1.29333 0.5 0.833333ZM0.5 5.49999C0.5 5.03999 0.873333 4.66666 1.33333 4.66666C1.79333 4.66666 2.16667 5.03999 2.16667 5.49999C2.16667 5.95999 1.79333 6.33332 1.33333 6.33332C0.873333 6.33332 0.5 5.95999 0.5 5.49999ZM1.33333 9.33331C0.873333 9.33331 0.5 9.70665 0.5 10.1666C0.5 10.6266 0.873333 11 1.33333 11C1.79333 11 2.16667 10.6266 2.16667 10.1666C2.16667 9.70665 1.79333 9.33331 1.33333 9.33331ZM4.94583 4.66666H15.0533C15.4825 4.66666 15.8333 5.01749 15.8333 5.44666V5.55332C15.8333 5.98249 15.4825 6.33332 15.0533 6.33332H4.94583C4.51666 6.33332 4.16666 5.98249 4.16666 5.55332V5.44666C4.16666 5.01749 4.51666 4.66666 4.94583 4.66666ZM15.0533 9.33331H4.94583C4.51666 9.33331 4.16666 9.68415 4.16666 10.1133V10.22C4.16666 10.6491 4.51666 11 4.94583 11H15.0533C15.4825 11 15.8333 10.6491 15.8333 10.22V10.1133C15.8333 9.68415 15.4825 9.33331 15.0533 9.33331ZM4.94583 0H15.0533C15.4825 0 15.8333 0.350833 15.8333 0.78V0.886667C15.8333 1.31583 15.4825 1.66667 15.0533 1.66667H4.94583C4.51666 1.66667 4.16666 1.31583 4.16666 0.886667V0.78C4.16666 0.350833 4.51666 0 4.94583 0Z" fill="#32DC30"/>
</svg>
