<svg width="16" height="18" viewBox="0 0 16 18" fill="none" xmlns="http://www.w3.org/2000/svg">
<path fill-rule="evenodd" clip-rule="evenodd" d="M3.83333 12.3333C3.83333 11.875 4.20833 11.5 4.66667 11.5C5.125 11.5 5.5 11.875 5.5 12.3333C5.5 12.7917 5.125 13.1667 4.66667 13.1667C4.20833 13.1667 3.83333 12.7917 3.83333 12.3333ZM8 11.5H11.3333C11.7917 11.5 12.1667 11.875 12.1667 12.3333C12.1667 12.7917 11.7917 13.1667 11.3333 13.1667H8C7.54167 13.1667 7.16667 12.7917 7.16667 12.3333C7.16667 11.875 7.54167 11.5 8 11.5ZM13 15.6667H3C2.54083 15.6667 2.16667 15.2925 2.16667 14.8333V9.83332H13.8333V14.8333C13.8333 15.2925 13.4592 15.6667 13 15.6667ZM3 3.99999H3.83333V4.83332C3.83333 5.29166 4.20833 5.66666 4.66667 5.66666C5.125 5.66666 5.5 5.29166 5.5 4.83332V3.99999H10.5V4.83332C10.5 5.29166 10.875 5.66666 11.3333 5.66666C11.7917 5.66666 12.1667 5.29166 12.1667 4.83332V3.99999H13C13.4592 3.99999 13.8333 4.37416 13.8333 4.83332V8.16666H2.16667V4.83332C2.16667 4.37416 2.54083 3.99999 3 3.99999ZM13 2.33332H12.1667V1.49999C12.1667 1.04166 11.7917 0.666656 11.3333 0.666656C10.875 0.666656 10.5 1.04166 10.5 1.49999V2.33332H5.5V1.49999C5.5 1.04166 5.125 0.666656 4.66667 0.666656C4.20833 0.666656 3.83333 1.04166 3.83333 1.49999V2.33332H3C1.62167 2.33332 0.5 3.45499 0.5 4.83332V14.8333C0.5 16.2117 1.62167 17.3333 3 17.3333H13C14.3783 17.3333 15.5 16.2117 15.5 14.8333V4.83332C15.5 3.45499 14.3783 2.33332 13 2.33332Z" fill="#32DC30"/>
</svg>
