<svg width="20" height="20" viewBox="0 0 20 20" fill="none" xmlns="http://www.w3.org/2000/svg">
<path fill-rule="evenodd" clip-rule="evenodd" d="M2.5 5.83333C2.5 5.37333 2.87333 5 3.33333 5C3.79333 5 4.16667 5.37333 4.16667 5.83333C4.16667 6.29333 3.79333 6.66667 3.33333 6.66667C2.87333 6.66667 2.5 6.29333 2.5 5.83333ZM2.5 10.5C2.5 10.04 2.87333 9.66666 3.33333 9.66666C3.79333 9.66666 4.16667 10.04 4.16667 10.5C4.16667 10.96 3.79333 11.3333 3.33333 11.3333C2.87333 11.3333 2.5 10.96 2.5 10.5ZM3.33333 14.3333C2.87333 14.3333 2.5 14.7066 2.5 15.1666C2.5 15.6266 2.87333 16 3.33333 16C3.79333 16 4.16667 15.6266 4.16667 15.1666C4.16667 14.7066 3.79333 14.3333 3.33333 14.3333ZM6.94583 9.66666H17.0533C17.4825 9.66666 17.8333 10.0175 17.8333 10.4467V10.5533C17.8333 10.9825 17.4825 11.3333 17.0533 11.3333H6.94583C6.51666 11.3333 6.16666 10.9825 6.16666 10.5533V10.4467C6.16666 10.0175 6.51666 9.66666 6.94583 9.66666ZM17.0533 14.3333H6.94583C6.51666 14.3333 6.16666 14.6841 6.16666 15.1133V15.22C6.16666 15.6491 6.51666 16 6.94583 16H17.0533C17.4825 16 17.8333 15.6491 17.8333 15.22V15.1133C17.8333 14.6841 17.4825 14.3333 17.0533 14.3333ZM6.94583 5H17.0533C17.4825 5 17.8333 5.35083 17.8333 5.78V5.88667C17.8333 6.31583 17.4825 6.66667 17.0533 6.66667H6.94583C6.51666 6.66667 6.16666 6.31583 6.16666 5.88667V5.78C6.16666 5.35083 6.51666 5 6.94583 5Z" fill="#FFF"/>
</svg>
