<svg width="15" height="17" viewBox="0 0 15 17" fill="none" xmlns="http://www.w3.org/2000/svg">
<path fill-rule="evenodd" clip-rule="evenodd" d="M3.33333 11.6667C3.33333 11.2083 3.70833 10.8333 4.16667 10.8333C4.625 10.8333 5 11.2083 5 11.6667C5 12.125 4.625 12.5 4.16667 12.5C3.70833 12.5 3.33333 12.125 3.33333 11.6667ZM7.5 10.8333H10.8333C11.2917 10.8333 11.6667 11.2083 11.6667 11.6667C11.6667 12.125 11.2917 12.5 10.8333 12.5H7.5C7.04167 12.5 6.66667 12.125 6.66667 11.6667C6.66667 11.2083 7.04167 10.8333 7.5 10.8333ZM12.5 15H2.5C2.04083 15 1.66667 14.6258 1.66667 14.1667V9.16667H13.3333V14.1667C13.3333 14.6258 12.9592 15 12.5 15M2.5 3.33333H3.33333V4.16667C3.33333 4.625 3.70833 5 4.16667 5C4.625 5 5 4.625 5 4.16667V3.33333H10V4.16667C10 4.625 10.375 5 10.8333 5C11.2917 5 11.6667 4.625 11.6667 4.16667V3.33333H12.5C12.9592 3.33333 13.3333 3.7075 13.3333 4.16667V7.5H1.66667V4.16667C1.66667 3.7075 2.04083 3.33333 2.5 3.33333M12.5 1.66667H11.6667V0.833333C11.6667 0.375 11.2917 0 10.8333 0C10.375 0 10 0.375 10 0.833333V1.66667H5V0.833333C5 0.375 4.625 0 4.16667 0C3.70833 0 3.33333 0.375 3.33333 0.833333V1.66667H2.5C1.12167 1.66667 0 2.78833 0 4.16667V14.1667C0 15.545 1.12167 16.6667 2.5 16.6667H12.5C13.8783 16.6667 15 15.545 15 14.1667V4.16667C15 2.78833 13.8783 1.66667 12.5 1.66667" fill="white"/>
</svg>
